PathFileType	4	(X/Y/Z)	C:\Git\1_current_projects\powerlifing_model\simulations\Athlete_03\25_03_31\Walking_01\markers_experimental.trc
DataRate	CameraRate	NumFrames	NumMarkers	Units	OrigDataRate	OrigDataStartFrame	OrigNumFrames
200.000000	200.000000	4	53	mm	200.000000	89	239
Frame#	Time	GLAB			RFHD			LFHD			C7			T6			SPINMOL			SPINM2			SPINM3			T12			BELTOL			BELT2			BELT3			SACROL			SACR2			SACR3			LTHOL			LTH2			LTH3			LSHAOL			LSHA2			LSHA3			LHEE			LTOE			LM5			RTHOL			RTH2			RTH3			RSHAOL			RSHA2			RSHA3			RHEE			RTOE			RM5			STRN			XIPH			LACR			LUAOL			LUA2			LUA3			LLAOL			LLA2			LLA3			LWRR			LWRU			RACR			RUAOL			RUA2			RUA3			RLAOL			RLA2			RLA3			RWRR			RWRU			
		X1	Y1	Z1	X2	Y2	Z2	X3	Y3	Z3	X4	Y4	Z4	X5	Y5	Z5	X6	Y6	Z6	X7	Y7	Z7	X8	Y8	Z8	X9	Y9	Z9	X10	Y10	Z10	X11	Y11	Z11	X12	Y12	Z12	X13	Y13	Z13	X14	Y14	Z14	X15	Y15	Z15	X16	Y16	Z16	X17	Y17	Z17	X18	Y18	Z18	X19	Y19	Z19	X20	Y20	Z20	X21	Y21	Z21	X22	Y22	Z22	X23	Y23	Z23	X24	Y24	Z24	X25	Y25	Z25	X26	Y26	Z26	X27	Y27	Z27	X28	Y28	Z28	X29	Y29	Z29	X30	Y30	Z30	X31	Y31	Z31	X32	Y32	Z32	X33	Y33	Z33	X34	Y34	Z34	X35	Y35	Z35	X36	Y36	Z36	X37	Y37	Z37	X38	Y38	Z38	X39	Y39	Z39	X40	Y40	Z40	X41	Y41	Z41	X42	Y42	Z42	X43	Y43	Z43	X44	Y44	Z44	X45	Y45	Z45	X46	Y46	Z46	X47	Y47	Z47	X48	Y48	Z48	X49	Y49	Z49	X50	Y50	Z50	X51	Y51	Z51	X52	Y52	Z52	X53	Y53	Z53	

90	0.445	254.4402465820313	1605.356323242188	-84.86155700683595	319.0265808105469	1630.6796875	-34.69041061401368	181.294189453125	1624.740234375	-39.58089828491212	254.9212341308594	1441.74462890625	138.4389038085938	252.9325408935547	1275.003173828125	200.8144531250001	231.3114776611329	1234.87158203125	209.7850036621094	281.1589355468751	1227.37060546875	215.0509185791016	246.9213104248047	1170.69580078125	206.9681243896485	247.1007385253907	1103.760009765625	184.0723419189453	226.9828338623047	1069.234375	221.3957672119141	277.9772033691407	1067.398803710938	223.7040405273438	247.9846496582032	1006.975952148438	227.2201080322266	220.4963531494141	955.8272705078127	206.8243713378907	272.3038330078126	954.2002563476565	209.6231079101563	243.7335662841797	895.5841064453127	223.2928619384766	43.96402740478516	680.7987670898439	7.394066810607912	64.99839782714845	607.2542724609376	26.47187614440919	52.8696746826172	625.5969848632814	-18.72843933105469	48.337215423584	356.1270446777344	-45.0543441772461	70.08395385742189	297.6776428222657	3.93012285232544	58.24599838256837	294.9208068847657	-44.86791992187501	158.3584289550782	105.3989868164063	21.06928253173828	136.9795532226563	77.8379364013672	-197.8451232910157	49.27636718750001	48.92545318603517	-145.6977996826172	426.9728393554689	696.3476562500001	159.9207305908203	430.6697082519532	633.1963500976564	111.4875640869141	415.127899169922	636.3534545898439	159.043212890625	400.1948242187501	349.8000183105469	231.6437988281251	397.0465393066407	274.3813781738282	207.9764099121094	385.4770507812501	293.1260986328126	252.9271697998047	274.1504211425782	83.50479888916017	312.9111022949219	287.1419677734376	44.07552337646485	105.8772354125977	388.3937377929689	39.12925338745118	159.4371032714844	248.1686401367188	1336.788940429688	-28.74166107177735	250.1704406738282	1191.7529296875	-41.09873199462891	77.44866943359376	1401.916625976563	69.95972442626955	-24.80044174194337	1249.952880859375	102.5194320678711	-42.17666625976563	1190.2255859375	125.320915222168	-27.61569404602051	1189.762817382813	76.44883728027345	-75.72437286376955	987.0611572265627	110.9499130249024	-54.50755310058595	920.4089355468752	147.8128814697266	-78.01145172119142	925.7255859375002	104.0271835327149	-85.50442504882814	823.4224243164065	84.01490020751955	-28.43115997314454	824.926940917969	29.80925369262696	418.9221801757814	1395.7763671875	47.20032119750977	524.2854003906251	1253.177368164063	37.54185104370118	529.3595581054689	1198.120727539063	0.6705980300903321	548.7681274414064	1193.328735351563	48.40179824829103	568.8851928710939	994.3378906250002	-66.65319061279298	573.7063598632814	977.9127197265627	-144.6297607421875	560.1652221679689	947.8416748046877	-107.1597976684571	550.9382934570314	896.7744750976565	-182.3695831298828	474.7025756835939	911.6781005859377	-208.0098114013672	
91	0.45	253.8028869628907	1604.3076171875	-91.4538040161133	318.3458557128907	1629.668579101563	-41.25370025634766	180.6030578613282	1623.560546875	-46.20724487304688	254.4085083007813	1440.753051757813	131.7723693847657	252.3293762207032	1274.10693359375	194.336410522461	230.6803283691407	1233.976684570313	203.330062866211	280.5397033691407	1226.492919921875	208.7642517089844	246.2866516113282	1169.81201171875	200.6774139404297	246.433578491211	1102.8076171875	177.8634796142578	226.2660369873047	1068.184448242188	215.0586242675782	277.2969055175782	1066.453369140625	217.5414428710938	247.3501892089844	1005.965148925781	221.0413665771485	219.9287414550782	954.8196411132815	200.6246032714844	271.7644653320313	953.3689575195315	203.5637359619141	243.3093414306641	894.7089843750002	217.3684539794922	44.94815063476563	678.9306030273439	1.341575264930725	66.80612945556642	605.6145629882814	20.26516914367676	54.16814422607423	623.8238525390626	-24.8409824371338	48.92965698242189	352.9415588378907	-55.95746231079103	70.49196624755861	292.7911987304688	-9.018325805664064	58.40150451660158	291.7114868164063	-57.75898742675783	157.2266845703125	99.52497100830081	1.553611755371094	135.4623565673828	79.51174926757814	-218.1729278564454	47.68792343139649	49.24459075927736	-166.9158325195313	426.8438110351564	696.2396240234376	155.5628356933594	430.6192321777345	632.7188110351564	107.6178588867188	414.9694213867189	636.2302246093751	155.1156616210938	399.9941406250001	350.1447143554688	229.7417602539063	396.9346313476564	274.5509338378907	206.5912780761719	385.2990722656251	293.6034545898438	251.391342163086	273.9858398437501	84.11329650878908	312.6333923339844	287.0675048828126	44.05904388427735	105.831169128418	388.3381652832032	39.16281127929688	159.3342437744141	247.771713256836	1335.465698242188	-35.27119064331055	249.8966827392579	1190.414916992188	-47.34347915649415	76.95119476318361	1400.761352539063	63.208309173584	-25.21827507019044	1248.892944335938	96.51483917236331	-42.5177230834961	1189.259399414063	119.6340255737305	-28.08716011047364	1188.564697265625	70.73160552978517	-76.08149719238283	986.0502929687502	106.4225234985352	-54.72727203369142	919.627136230469	143.6165618896485	-78.40471649169923	924.6835937500002	99.88262176513675	-85.9513397216797	822.2466430664065	80.53645324707033	-29.11668205261231	823.4119873046877	26.08864974975587	418.4348144531251	1394.7236328125	40.6692237854004	523.8783569335939	1252.371337890625	30.80687522888184	529.0911254882814	1197.538208007813	-6.351875782012941	548.3820190429689	1192.503173828125	41.40185928344727	568.4398803710939	994.4314575195315	-75.39984130859376	572.9442749023439	978.9312133789065	-153.5754089355469	559.4839477539064	948.444763183594	-116.4251403808594	549.8947753906251	898.2410888671877	-192.1558990478516	473.6734619140626	913.8049926757815	-217.5093688964844	
92	0.455	253.1407775878907	1603.20361328125	-98.06741333007815	317.6416625976563	1628.604370117188	-47.83917236328126	179.8887023925782	1622.330444335938	-52.85359954833986	253.8628692626954	1439.715087890625	125.0956115722657	251.688705444336	1273.15966796875	187.838851928711	230.0135955810547	1233.027709960938	196.8531341552735	279.8871154785157	1225.567138671875	202.4650878906251	245.620834350586	1168.8759765625	194.3636932373047	245.7448883056641	1101.802001953125	171.6233673095703	225.5771026611329	1067.057861328125	208.6962890625001	276.6437988281251	1065.437866210938	211.3378143310547	246.7531127929688	1004.880554199219	214.823471069336	219.3575897216797	953.7691650390627	194.3884887695313	271.2198791503907	952.5051879882815	197.4677276611329	242.8869018554688	893.7954101562502	211.4053649902344	45.9840202331543	676.9293212890626	-4.530913352966309	68.7416458129883	603.8848266601564	14.2600269317627	55.51085281372072	621.9100341796876	-30.73625183105469	49.47888183593751	349.7867431640626	-66.81765747070314	70.81881713867189	287.9975891113282	-21.97041320800782	58.51746749877931	288.6005554199219	-70.60906219482423	156.0636749267578	93.99268341064455	-17.9864730834961	133.9257354736328	81.46638488769533	-238.2561035156251	46.07605743408204	49.91042709350587	-187.9147186279297	426.681121826172	696.1382446289064	151.2227783203125	430.595428466797	632.2501220703126	103.7782745361328	414.7941284179689	636.1113281250001	151.1998748779297	399.8104248046876	350.4951171875001	227.8156433105469	396.8375854492189	274.7278442382813	205.1868286132813	385.1370849609376	294.0923156738282	249.8335113525391	273.8451232910157	84.75012207031251	312.3584289550782	287.0010375976563	44.05040359497071	105.7838287353516	388.2923583984376	39.18575668334962	159.222885131836	247.3506317138672	1334.096923828125	-41.81567764282227	249.5904541015626	1189.033325195313	-53.6122169494629	76.42153930664064	1399.5625	56.43030929565431	-25.66272163391114	1247.781372070313	90.43868255615236	-42.89167785644532	1188.24072265625	113.862289428711	-28.57799148559571	1187.320556640625	64.9325637817383	-76.45863342285158	984.997497558594	101.8012313842774	-54.97282791137697	918.8079223632815	139.3309936523438	-78.81959533691408	923.6021728515627	95.64992523193361	-86.42359924316408	821.0379638671877	76.97434997558595	-29.81413841247559	821.8524169921877	22.30487823486328	417.9192504882814	1393.614379882813	34.13152694702149	523.4349365234376	1251.505249023438	24.07505989074708	528.7877807617189	1196.890258789063	-13.35862159729004	547.9608154296876	1191.617065429688	34.41598510742188	567.9619140625001	994.4598388671877	-84.08299255371095	572.1668090820314	979.8681640625002	-162.4432373046875	558.7808837890626	948.9693603515627	-125.6136932373047	548.8400878906251	899.633483886719	-201.845199584961	472.6369934082032	915.8377685546877	-226.9130401611329	
93	0.46	252.4524230957032	1602.047973632813	-104.7022781372071	316.9125366210938	1627.490478515625	-54.44713592529298	179.1499176025391	1621.053955078125	-59.5195655822754	253.2824401855469	1438.633422851563	118.4093399047852	251.0105285644532	1272.1640625	181.3215484619141	229.3115997314454	1232.02734375	190.353515625	279.2012329101563	1224.595825195313	196.1516265869141	244.9242858886719	1167.889526367188	188.023910522461	245.0356750488282	1100.745361328125	165.348617553711	224.9153137207032	1065.860595703125	202.3086242675782	276.0165710449219	1064.356689453125	205.0926666259766	246.1916046142579	1003.727661132813	208.5656738281251	218.7780761718751	952.6812744140627	188.1125640869141	270.6644897460938	951.6157226562502	191.3340759277344	242.4623107910157	892.849792480469	205.4022979736329	47.06078338623048	674.8084106445314	-10.22679138183594	70.78442382812501	602.0766601562501	8.451393127441408	56.8869972229004	619.8671264648439	-36.42033004760743	49.97779846191408	346.6819152832032	-77.63504791259767	71.05405426025392	283.3222656250001	-34.91472244262696	58.59059906005861	285.6058959960938	-83.41008758544923	154.8705444335938	88.82020568847658	-37.51060485839844	132.387924194336	83.69900512695314	-258.0628967285157	44.4569435119629	50.91498947143556	-208.6651153564454	426.4829711914064	696.0433349609376	146.8955230712891	430.597381591797	631.7920532226564	99.96289825439456	414.6012573242189	635.9968261718751	147.289779663086	399.6430664062501	350.8523864746094	225.8565979003907	396.7517089843751	274.9140625000001	203.7538757324219	384.9906311035157	294.5941467285157	248.2457885742188	273.7268371582032	85.41991424560548	312.0833740234376	286.9401855468751	44.05002212524415	105.7368240356446	388.2557983398439	39.19988250732423	159.1036834716797	246.9044494628907	1332.688110351563	-48.37581253051759	249.2516632080079	1187.613159179688	-59.90577316284181	75.85868072509767	1398.323120117188	49.62679290771486	-26.13560867309571	1246.620727539063	84.29073333740236	-43.29969787597657	1187.171020507813	108.004508972168	-29.08869743347169	1186.033325195313	59.05065536499025	-76.85649871826173	983.9048461914065	97.08414459228518	-55.24522399902345	917.9531860351565	134.9541931152344	-79.2568817138672	922.4834594726565	91.3273162841797	-86.92173767089845	819.7984008789065	73.32631683349611	-30.52490615844727	820.2513427734377	18.45483207702637	417.3736877441407	1392.452880859375	27.58757209777833	522.9530029296876	1250.583862304688	17.34446144104004	528.4472045898439	1196.180541992188	-20.35100173950196	547.5031738281251	1190.67529296875	27.44257164001466	567.4512939453126	994.4244384765627	-92.70114898681642	571.3739013671876	980.7233886718752	-171.2321929931641	558.0562744140626	949.416931152344	-134.7228698730469	547.7740478515626	900.9500732421877	-211.4357910156251	471.5940551757814	917.7739868164065	-236.219955444336	
